<?xml version="1.0" encoding="UTF-8"?>
<svg version="1.1" xmlns="http://www.w3.org/2000/svg" width="1280" height="720">
<path d="M0 0 C2.05242483 1.85613588 4.14658209 3.63917867 6.265625 5.41796875 C15.83663626 13.7950108 23.91361597 23.81763106 31.328125 34.10546875 C31.78799805 34.74129883 32.24787109 35.37712891 32.72167969 36.03222656 C51.65673474 62.53104769 64.42068252 92.3322985 71.328125 124.10546875 C71.53840332 125.04358398 71.74868164 125.98169922 71.96533203 126.94824219 C78.37506381 156.75882373 77.78631304 190.37028029 71.328125 220.10546875 C71.11381836 221.09836914 70.89951172 222.09126953 70.67871094 223.11425781 C63.48827521 255.25665682 49.50568814 286.02534046 29.328125 312.10546875 C28.70679688 312.91886719 28.08546875 313.73226563 27.4453125 314.5703125 C20.21748995 323.8318746 12.16307765 332.34199746 3.890625 340.66796875 C3.3946582 341.1686084 2.89869141 341.66924805 2.38769531 342.18505859 C-0.16048439 344.72193238 -2.72748935 347.03813414 -5.671875 349.10546875 C-4.95902344 349.59015625 -4.24617188 350.07484375 -3.51171875 350.57421875 C7.70059657 358.42133041 14.40120653 365.95353888 17.9453125 379.45703125 C19.88484128 392.87540385 18.48380343 405.19107454 11.109375 416.72265625 C4.38373781 425.71967092 -6.22068227 432.57011017 -17.30859375 434.796875 C-34.14127927 436.99486203 -48.32424296 435.12361048 -64.484375 429.91796875 C-66.2020105 429.37487061 -66.2020105 429.37487061 -67.9543457 428.82080078 C-79.71673994 424.85587201 -90.32344647 418.44915395 -96.2109375 407.15234375 C-97.43195929 404.49201694 -98.58747363 401.82396803 -99.671875 399.10546875 C-108.43049062 399.90170653 -117.02748008 401.52744488 -125.671875 403.10546875 C-125.70925781 404.15605469 -125.74664063 405.20664062 -125.78515625 406.2890625 C-126.55757817 424.05688287 -126.55757817 424.05688287 -131.546875 430.54296875 C-136.67122282 434.31087156 -141.47233613 434.44301789 -147.609375 434.41796875 C-148.39505859 434.43408203 -149.18074219 434.45019531 -149.99023438 434.46679688 C-154.97342929 434.47096691 -158.323671 433.79332568 -162.671875 431.10546875 C-163.001875 430.77546875 -163.331875 430.44546875 -163.671875 430.10546875 C-165.58476678 429.80914656 -167.50244014 429.54343159 -169.421875 429.29296875 C-177.63231452 427.92943194 -177.63231452 427.92943194 -180.671875 424.10546875 C-184.17162586 417.34980213 -183.95075624 410.53917108 -183.671875 403.10546875 C-184.39093018 403.06881104 -185.10998535 403.03215332 -185.85083008 402.99438477 C-193.64560597 402.48596151 -200.80863825 400.96684438 -208.359375 399.04296875 C-221.57444895 395.85519914 -234.14236402 395.41527787 -247.671875 396.10546875 C-247.6577356 397.16930786 -247.6577356 397.16930786 -247.64331055 398.25463867 C-247.60139369 403.71442393 -247.7157371 409.00000891 -248.484375 414.41796875 C-248.71060547 416.11373047 -248.71060547 416.11373047 -248.94140625 417.84375 C-250.10993046 423.06149178 -251.99768085 427.02185904 -256.171875 430.41796875 C-256.7596875 430.90910156 -257.3475 431.40023438 -257.953125 431.90625 C-263.56450224 435.82146094 -273.05792524 434.77265817 -279.671875 434.10546875 C-282.01586856 433.3362889 -283.72165183 432.43995935 -285.78125 431.11328125 C-288.24860858 429.79803639 -290.53785806 429.51120654 -293.296875 429.10546875 C-297.99431794 428.33880448 -301.08844757 427.42669417 -304.671875 424.10546875 C-308.44760198 418.18610322 -309.83057838 412.99714635 -309.63916016 405.99853516 C-309.61069 404.76269684 -309.58221985 403.52685852 -309.55288696 402.25357056 C-309.52884733 401.26572508 -309.52884733 401.26572508 -309.50432205 400.25792313 C-309.41415334 395.99543172 -309.39648302 391.73189402 -309.36797523 387.46862221 C-309.33901704 383.7390122 -309.28348706 380.01365155 -309.16796875 376.28564453 C-307.90758765 358.65875475 -307.90758765 358.65875475 -314.10449219 343.01464844 C-317.61432228 339.48065083 -321.51420598 336.82010448 -325.671875 334.10546875 C-325.671875 333.44546875 -325.671875 332.78546875 -325.671875 332.10546875 C-326.53039062 331.76515625 -326.53039062 331.76515625 -327.40625 331.41796875 C-330.30081875 329.74111513 -331.85018085 327.72862105 -333.921875 325.10546875 C-334.71207031 324.1103125 -335.50226563 323.11515625 -336.31640625 322.08984375 C-337.09371094 321.105 -337.87101562 320.12015625 -338.671875 319.10546875 C-339.33574219 318.30625 -339.99960937 317.50703125 -340.68359375 316.68359375 C-366.46373428 285.51733867 -382.86888346 245.96743514 -388.671875 206.10546875 C-388.84541504 204.92936035 -388.84541504 204.92936035 -389.02246094 203.72949219 C-396.95517677 147.07059902 -383.10576297 85.82219981 -349.671875 39.10546875 C-348.98609375 38.14511719 -348.3003125 37.18476563 -347.59375 36.1953125 C-334.78593589 18.71126409 -319.97598329 2.23678798 -302.671875 -10.89453125 C-302.10500977 -11.32717285 -301.53814453 -11.75981445 -300.95410156 -12.20556641 C-223.17045993 -71.31865291 -121.80373602 -75.24671136 0 0 Z M-41.671875 378.10546875 C-42.87508331 383.67030717 -43.19703093 389.4355649 -42.671875 395.10546875 C-42.011875 396.09546875 -41.351875 397.08546875 -40.671875 398.10546875 C-38.69191168 387.69625013 -38.69191168 387.69625013 -41.671875 378.10546875 Z " fill="#FEFE00" transform="translate(797.671875,140.89453125)"/>
<path d="M0 0 C1.08764648 -0.02416992 1.08764648 -0.02416992 2.19726562 -0.04882812 C7.3721033 -0.05347757 10.94731919 0.96024655 15.5625 3.3125 C16.0575 3.8075 16.0575 3.8075 16.5625 4.3125 C18.45546784 4.58334454 20.35205757 4.82905075 22.25 5.0625 C27.93532827 5.95484641 30.63039403 7.17344108 34.5625 11.3125 C35.5525 12.3025 35.5525 12.3025 36.5625 13.3125 C36.913125 12.425625 37.26375 11.53875 37.625 10.625 C40.46570671 5.76830789 44.24768183 3.08410606 49.5625 1.3125 C57.49657942 0.78826604 64.35684696 0.78031714 71.5625 4.3125 C71.8925 4.6425 72.2225 4.9725 72.5625 5.3125 C74.28740129 5.60928881 76.0177189 5.87485954 77.75 6.125 C82.54948039 6.97782596 85.85698705 7.97753835 89.5625 11.3125 C93.99413077 18.34198329 93.74107861 25.918265 93.87890625 33.9609375 C93.89968735 34.97346588 93.92046844 35.98599426 93.94187927 37.02920532 C94.00701598 40.24857098 94.06609232 43.46801494 94.125 46.6875 C94.16821937 48.87631003 94.21183473 51.06511227 94.25585938 53.25390625 C94.36266039 58.6066892 94.464492 63.95954922 94.5625 69.3125 C94.94921875 68.50208252 95.3359375 67.69166504 95.734375 66.85668945 C96.51554687 65.25120239 96.51554687 65.25120239 97.3125 63.61328125 C98.07820313 62.02640503 98.07820313 62.02640503 98.859375 60.4074707 C104.85489423 49.51223026 115.49502894 43.90627502 126.9765625 40.21484375 C147.49254144 35.14480298 172.22988206 38.89807467 190.8203125 49.01953125 C196.90943094 53.53858552 201.44249624 59.22616714 203.08203125 66.671875 C203.82814036 72.76012532 203.6903932 77.89883869 200.5625 83.3125 C197.11973599 87.13455157 193.31972911 90.28752875 188.5625 92.3125 C185.8125 92.4375 185.8125 92.4375 183.5625 92.3125 C183.5625 92.9725 183.5625 93.6325 183.5625 94.3125 C184.18125 94.35375 184.8 94.395 185.4375 94.4375 C186.13875 94.72625 186.84 95.015 187.5625 95.3125 C188.8125 98.375 188.8125 98.375 189.5625 101.3125 C190.59375 100.796875 191.625 100.28125 192.6875 99.75 C196.33461068 98.20699164 198.73555159 97.9208824 202.5625 99.3125 C204.94240306 101.99948732 205.5625 103.53565714 205.5625 107.125 C202.19251755 117.86681908 194.30816043 124.71455955 184.69921875 129.953125 C176.45968613 133.52393117 169.08734876 134.79540788 160.125 134.6875 C159.16529297 134.69910156 158.20558594 134.71070313 157.21679688 134.72265625 C150.23084565 134.69443018 144.20340458 133.40088892 137.5625 131.3125 C135.94822772 130.84657721 134.33365544 130.38169224 132.71875 129.91796875 C117.85058311 125.45454724 104.55642434 120.53632627 96.5625 106.3125 C95.88153578 104.98641178 95.20919414 103.65563399 94.5625 102.3125 C94.41554688 103.88837891 94.41554688 103.88837891 94.265625 105.49609375 C92.42441264 123.45058736 92.42441264 123.45058736 86.125 129.75 C79.42414333 133.83588822 73.27207701 133.95654329 65.5625 133.3125 C62.59450428 132.50928004 59.7893393 131.5393393 57.5625 129.3125 C55.81782717 128.99049663 54.06638661 128.70480357 52.3125 128.4375 C44.69847168 127.0683539 44.69847168 127.0683539 41.5625 124.3125 C39.6134816 121.45216582 38.10921833 118.40593667 36.5625 115.3125 C36.43294922 116.29089844 36.43294922 116.29089844 36.30078125 117.2890625 C35.31076834 123.44712442 34.16726955 127.02899344 29.5625 131.3125 C25.03148366 133.75421436 20.64266229 133.64548025 15.625 133.625 C14.83931641 133.64111328 14.05363281 133.65722656 13.24414062 133.67382812 C8.26094571 133.67799816 4.910704 133.00035693 0.5625 130.3125 C0.2325 129.9825 -0.0975 129.6525 -0.4375 129.3125 C-2.35039178 129.01617781 -4.26806514 128.75046284 -6.1875 128.5 C-14.29633904 127.16295537 -14.29633904 127.16295537 -17.4375 123.3125 C-20.28928472 117.03498095 -20.90172716 111.75252414 -20.94921875 104.90625 C-20.96716995 103.9409436 -20.98512115 102.97563721 -21.00361633 101.9810791 C-21.05741198 98.92492932 -21.09151606 95.86893294 -21.125 92.8125 C-21.15820022 90.72914546 -21.19269236 88.64581109 -21.22851562 86.5625 C-21.31312067 81.47927791 -21.38007792 76.39609888 -21.4375 71.3125 C-22.45972656 71.63992188 -23.48195313 71.96734375 -24.53515625 72.3046875 C-28.04616041 73.30783155 -31.21009541 73.51985741 -34.875 73.4375 C-35.92558594 73.41945313 -36.97617187 73.40140625 -38.05859375 73.3828125 C-38.84363281 73.35960937 -39.62867188 73.33640625 -40.4375 73.3125 C-40.42178955 74.56796631 -40.4060791 75.82343262 -40.38989258 77.11694336 C-40.33528869 81.80779518 -40.30103969 86.49861931 -40.27270508 91.18969727 C-40.25768755 93.21383399 -40.23726739 95.23793855 -40.21118164 97.26196289 C-40.17448733 100.18383761 -40.15770292 103.10527935 -40.14453125 106.02734375 C-40.12904739 106.92146469 -40.11356354 107.81558563 -40.09761047 108.73680115 C-40.09569566 116.00599908 -41.28927468 122.82316956 -45.75 128.75 C-50.38301637 133.16752724 -55.20072128 133.60448428 -61.4375 133.625 C-62.613125 133.64175781 -63.78875 133.65851563 -65 133.67578125 C-68.94047084 133.25934513 -72.55498523 132.19501477 -75.4375 129.3125 C-77.33046784 129.04165546 -79.22705757 128.79594925 -81.125 128.5625 C-86.84701168 127.63148385 -89.63505481 126.69993675 -93.4375 122.3125 C-97.20516801 115.03700316 -97.58142485 108.64109646 -97.53515625 100.63671875 C-97.5337413 99.7115596 -97.53232635 98.78640045 -97.53086853 97.83320618 C-97.52528715 94.88877073 -97.51273805 91.94441233 -97.5 89 C-97.49498259 86.99935006 -97.49042011 84.99869892 -97.48632812 82.99804688 C-97.47532381 78.10283506 -97.45807198 73.20768058 -97.4375 68.3125 C-98.0574585 68.25626465 -98.67741699 68.2000293 -99.31616211 68.14208984 C-100.12835205 68.06168457 -100.94054199 67.9812793 -101.77734375 67.8984375 C-102.58292725 67.82157715 -103.38851074 67.7447168 -104.21850586 67.66552734 C-106.4375 67.3125 -106.4375 67.3125 -109 65.9375 C-111.39392081 61.56599244 -111.12175044 57.16707679 -110.4375 52.3125 C-109 49.25 -109 49.25 -106.4375 47.3125 C-103.4692673 46.35203916 -100.52290957 45.75421462 -97.4375 45.3125 C-97.40011719 44.12914062 -97.36273437 42.94578125 -97.32421875 41.7265625 C-96.79789033 28.06226706 -95.40992171 16.96515797 -85.875 6.5 C-77.83141447 0.44172693 -66.00304986 0.49566653 -56.4375 1.3125 C-51.64516075 2.16788321 -46.81827158 3.08917864 -42.4609375 5.328125 C-39.92474992 6.56194599 -37.43992585 7.08139586 -34.6875 7.6875 C-29.43248913 8.94329304 -25.1457679 10.68673521 -20.4375 13.3125 C-20.375625 12.425625 -20.31375 11.53875 -20.25 10.625 C-19.22566511 6.44886546 -17.7717859 4.97992872 -14.4375 2.3125 C-9.55700653 0.2465684 -5.20761262 -0.02302216 0 0 Z M-14.4375 26.3125 C-14.67533203 27.50166016 -14.67533203 27.50166016 -14.91796875 28.71484375 C-16.4375 31.3125 -16.4375 31.3125 -20.17578125 32.31640625 C-21.69760825 32.52507598 -23.22277662 32.71041202 -24.75 32.875 C-32.38356636 33.73288293 -32.38356636 33.73288293 -38.4375 38.3125 C-39.44325537 40.63060557 -39.44325537 40.63060557 -39.75 43.0625 C-39.89050781 43.86171875 -40.03101563 44.6609375 -40.17578125 45.484375 C-40.26214844 46.08765625 -40.34851563 46.6909375 -40.4375 47.3125 C-37.01028062 50.38754896 -33.84788023 51.08149138 -29.375 51.9375 C-22.58939873 53.26186709 -22.58939873 53.26186709 -19.4375 54.3125 C-18.880625 52.7346875 -18.880625 52.7346875 -18.3125 51.125 C-16.16185887 46.11360038 -12.82368329 43.63118024 -8.0625 41 C0.61276006 38.72790808 8.50546029 41.439762 16.546875 44.58984375 C18.61839286 45.33253911 20.67118285 45.87139393 22.8125 46.375 C25.74735762 47.1087144 28.03799151 47.69681457 30.5625 49.3125 C31.0575 50.3025 31.0575 50.3025 31.5625 51.3125 C32.2225 51.3125 32.8825 51.3125 33.5625 51.3125 C34.0575 54.2825 34.0575 54.2825 34.5625 57.3125 C34.8925 57.3125 35.2225 57.3125 35.5625 57.3125 C35.5625 47.0825 35.5625 36.8525 35.5625 26.3125 C34.9025 26.6425 34.2425 26.9725 33.5625 27.3125 C33.5625 27.9725 33.5625 28.6325 33.5625 29.3125 C27.50590275 31.76787726 22.85379931 32.55087186 16.375 32.625 C15.1365332 32.66850586 15.1365332 32.66850586 13.87304688 32.71289062 C8.52752045 32.76765173 5.08177641 31.89253543 0.44018555 29.2722168 C-2.42031116 27.81016862 -5.27373354 27.45797081 -8.4375 27.0625 C-9.571875 26.91296875 -10.70625 26.7634375 -11.875 26.609375 C-13.1434375 26.46242188 -13.1434375 26.46242188 -14.4375 26.3125 Z M150.5625 93.3125 C151.05402482 98.17382495 151.05402482 98.17382495 153.5625 100.3125 C163.3546867 100.999671 171.65566852 98.14299538 180.5625 94.3125 C180.5625 93.9825 180.5625 93.6525 180.5625 93.3125 C170.6625 93.3125 160.7625 93.3125 150.5625 93.3125 Z " fill="#FDFDFD" transform="translate(922.4375,441.6875)"/>
<path d="M0 0 C2.05242483 1.85613588 4.14658209 3.63917867 6.265625 5.41796875 C15.83663626 13.7950108 23.91361597 23.81763106 31.328125 34.10546875 C31.78799805 34.74129883 32.24787109 35.37712891 32.72167969 36.03222656 C51.65673474 62.53104769 64.42068252 92.3322985 71.328125 124.10546875 C71.53840332 125.04358398 71.74868164 125.98169922 71.96533203 126.94824219 C78.37506381 156.75882373 77.78631304 190.37028029 71.328125 220.10546875 C71.11381836 221.09836914 70.89951172 222.09126953 70.67871094 223.11425781 C63.48827521 255.25665682 49.50568814 286.02534046 29.328125 312.10546875 C28.70679688 312.91886719 28.08546875 313.73226563 27.4453125 314.5703125 C20.21748995 323.8318746 12.16307765 332.34199746 3.890625 340.66796875 C3.3946582 341.1686084 2.89869141 341.66924805 2.38769531 342.18505859 C-2.84993735 347.39945261 -2.84993735 347.39945261 -5.671875 349.10546875 C-9.421875 348.79296875 -9.421875 348.79296875 -12.671875 348.10546875 C-10.47217275 345.08087816 -8.13866658 342.57068524 -5.296875 340.16796875 C5.87568954 330.55581825 15.56709647 319.92902495 24.328125 308.10546875 C25.17836245 306.98565964 26.0286227 305.86586785 26.87890625 304.74609375 C61.25678265 258.76917775 75.45197091 197.70010511 67.640625 141.16796875 C61.78097266 101.72327018 47.32892064 64.45781788 22.328125 33.10546875 C21.62300781 32.20828125 20.91789062 31.31109375 20.19140625 30.38671875 C2.60280574 8.40886246 -18.2269647 -9.86804391 -42.671875 -23.89453125 C-43.43918945 -24.33506836 -44.20650391 -24.77560547 -44.99707031 -25.22949219 C-66.80231646 -37.56333073 -90.02199103 -46.31541299 -114.671875 -50.89453125 C-115.36817017 -51.02476685 -116.06446533 -51.15500244 -116.78186035 -51.28918457 C-129.46573919 -53.59872583 -141.85336344 -54.36934955 -154.73535156 -54.28564453 C-157.67039421 -54.26953938 -160.6040606 -54.28561634 -163.5390625 -54.3046875 C-180.22806065 -54.32413895 -196.3706957 -52.38591411 -212.546875 -48.20703125 C-213.54098389 -47.95284424 -214.53509277 -47.69865723 -215.55932617 -47.43676758 C-244.25065906 -39.85128501 -271.17069525 -27.07682441 -294.671875 -8.89453125 C-295.48527344 -8.27320313 -296.29867187 -7.651875 -297.13671875 -7.01171875 C-341.83823688 27.8738262 -372.86602374 78.91845653 -381.671875 135.10546875 C-381.92130859 136.24810181 -381.92130859 136.24810181 -382.17578125 137.41381836 C-384.37219774 148.25568317 -384.06958383 159.27971383 -384.046875 170.29296875 C-384.0456665 171.36815765 -384.04445801 172.44334656 -384.04321289 173.55111694 C-383.99476963 189.39516335 -383.62882048 204.67653015 -379.671875 220.10546875 C-379.39279297 221.19472656 -379.11371094 222.28398437 -378.82617188 223.40625 C-370.97330013 253.11711506 -359.1649407 281.39194703 -340.671875 306.10546875 C-340.24084473 306.69054199 -339.80981445 307.27561523 -339.36572266 307.87841797 C-331.1625268 318.95473617 -321.90610191 331.00722791 -310.671875 339.10546875 C-310.6625293 338.51121094 -310.65318359 337.91695313 -310.64355469 337.3046875 C-310.58934507 334.5708223 -310.50580222 331.83857676 -310.421875 329.10546875 C-310.40769531 328.17089844 -310.39351563 327.23632812 -310.37890625 326.2734375 C-310.12621428 319.04644725 -308.678056 313.6607239 -303.9609375 308.08203125 C-303.41179687 307.63601563 -302.86265625 307.19 -302.296875 306.73046875 C-301.75289063 306.26898438 -301.20890625 305.8075 -300.6484375 305.33203125 C-294.95891931 301.80138162 -289.15807024 301.77367621 -282.6796875 301.69140625 C-281.73374725 301.6720401 -280.78780701 301.65267395 -279.8132019 301.63272095 C-276.80784978 301.57319826 -273.80245879 301.52664929 -270.796875 301.48046875 C-268.75258796 301.44226383 -266.70831658 301.40321064 -264.6640625 301.36328125 C-259.6667947 301.26751921 -254.66945158 301.18338761 -249.671875 301.10546875 C-250.55085449 300.29505127 -251.42983398 299.48463379 -252.33544922 298.6496582 C-253.50749802 297.56853411 -254.67953516 296.48739737 -255.8515625 295.40625 C-256.42865967 294.87422974 -257.00575684 294.34220947 -257.6003418 293.79406738 C-273.71595931 278.9255595 -295.62059999 256.55885479 -296.796875 233.25390625 C-296.6092743 230.02951927 -295.8187226 228.5206723 -293.671875 226.10546875 C-293.218125 225.56792969 -292.764375 225.03039062 -292.296875 224.4765625 C-289.95664281 222.05194694 -287.87812844 220.33697331 -284.5144043 219.69140625 C-275.16100901 219.60214032 -266.46643031 222.08012405 -257.484375 224.41796875 C-241.76324067 228.45013526 -226.20353119 231.88877737 -210.046875 233.73046875 C-209.04398438 233.85164063 -208.04109375 233.9728125 -207.0078125 234.09765625 C-194.88891246 235.51977207 -182.80229032 236.26182091 -170.6015625 236.30859375 C-169.40040802 236.31429382 -168.19925354 236.3199939 -166.96170044 236.3258667 C-164.43232075 236.33524349 -161.90292925 236.34182121 -159.37353516 236.34570312 C-155.60426011 236.3553223 -151.83555199 236.38638235 -148.06640625 236.41796875 C-124.86337749 236.52107604 -102.12186182 234.51152807 -79.421875 229.66796875 C-77.9989252 229.37714093 -76.57574577 229.08743448 -75.15234375 228.79882812 C-64.315808 226.57654136 -53.51604515 224.09744851 -42.89208984 221.00537109 C-37.26026594 219.43153463 -31.26402515 219.03479804 -25.796875 221.29296875 C-25.095625 221.89109375 -24.394375 222.48921875 -23.671875 223.10546875 C-22.310625 224.15734375 -22.310625 224.15734375 -20.921875 225.23046875 C-17.86001628 229.14284378 -17.27899264 232.18658157 -17.671875 237.10546875 C-18.61209118 240.64578893 -20.07352743 243.81702557 -21.671875 247.10546875 C-22.10886719 248.05550781 -22.54585937 249.00554687 -22.99609375 249.984375 C-38.78500995 283.16272767 -68.96781112 310.24875965 -103.359375 322.98046875 C-120.70304405 329.13802608 -137.52704285 332.48418256 -155.984375 332.35546875 C-156.99945129 332.35231155 -156.99945129 332.35231155 -158.03503418 332.34909058 C-181.19455848 332.26457426 -181.19455848 332.26457426 -190.671875 329.10546875 C-192.1796875 327.46875 -192.1796875 327.46875 -193.796875 325.41796875 C-203.36450304 314.23243284 -217.30425208 309.30188894 -231.671875 308.10546875 C-238.23896136 307.76495557 -244.80972999 307.73379789 -251.38427734 307.73486328 C-254.42991751 307.73045711 -257.47414294 307.69393197 -260.51953125 307.65625 C-262.48176596 307.65038583 -264.44400743 307.64641376 -266.40625 307.64453125 C-267.75188019 307.6229747 -267.75188019 307.6229747 -269.12469482 307.60098267 C-275.81534039 307.64894907 -282.11781922 308.95414057 -287.26434326 313.51748657 C-292.38541628 319.32560648 -292.96866776 324.57460307 -292.9465332 331.9597168 C-292.9541996 333.28271034 -292.9541996 333.28271034 -292.96202087 334.63243103 C-292.97590337 337.54408588 -292.97496046 340.45550351 -292.97265625 343.3671875 C-292.97654521 345.39874865 -292.98088029 347.43030899 -292.98564148 349.46186829 C-292.99310176 353.72126906 -292.99281473 357.98058695 -292.98754883 362.23999023 C-292.98176835 367.67922114 -292.9986518 373.11810995 -293.0218935 378.55728436 C-293.03668206 382.75509095 -293.03749534 386.95281627 -293.03438377 391.1506443 C-293.03489487 393.1547596 -293.04009259 395.1588797 -293.05019569 397.16296959 C-293.06263598 399.97694943 -293.05572219 402.79027736 -293.04418945 405.60424805 C-293.05183319 406.42070801 -293.05947693 407.23716797 -293.06735229 408.07836914 C-292.99976962 415.59964612 -291.1786643 422.44570756 -287.671875 429.10546875 C-293.98487039 429.55639699 -298.45162589 428.85244755 -303.671875 425.10546875 C-310.18423442 417.39346417 -309.88362249 409.55639389 -309.61005211 399.94073296 C-309.52105576 396.43564104 -309.5015264 392.92982879 -309.47070312 389.42382812 C-309.42920109 384.98759575 -309.3676763 380.55504117 -309.22290039 376.12084961 C-307.93862187 358.5881464 -307.93862187 358.5881464 -314.10009766 343.02783203 C-317.61213036 339.49209025 -321.51482328 336.82632827 -325.671875 334.10546875 C-325.671875 333.44546875 -325.671875 332.78546875 -325.671875 332.10546875 C-326.53039062 331.76515625 -326.53039062 331.76515625 -327.40625 331.41796875 C-330.30081875 329.74111513 -331.85018085 327.72862105 -333.921875 325.10546875 C-334.71207031 324.1103125 -335.50226563 323.11515625 -336.31640625 322.08984375 C-337.09371094 321.105 -337.87101562 320.12015625 -338.671875 319.10546875 C-339.33574219 318.30625 -339.99960937 317.50703125 -340.68359375 316.68359375 C-366.46373428 285.51733867 -382.86888346 245.96743514 -388.671875 206.10546875 C-388.84541504 204.92936035 -388.84541504 204.92936035 -389.02246094 203.72949219 C-396.95517677 147.07059902 -383.10576297 85.82219981 -349.671875 39.10546875 C-348.98609375 38.14511719 -348.3003125 37.18476563 -347.59375 36.1953125 C-334.78593589 18.71126409 -319.97598329 2.23678798 -302.671875 -10.89453125 C-302.10500977 -11.32717285 -301.53814453 -11.75981445 -300.95410156 -12.20556641 C-223.17045993 -71.31865291 -121.80373602 -75.24671136 0 0 Z " fill="#020200" transform="translate(797.671875,140.89453125)"/>
<path d="M0 0 C0.72896484 -0.01611328 1.45792969 -0.03222656 2.20898438 -0.04882812 C7.02180905 -0.0531601 10.22828585 0.75065164 14.4375 3.3125 C14.9325 3.8075 14.9325 3.8075 15.4375 4.3125 C17.29039184 4.53188239 19.14488094 4.73782511 21 4.9375 C27.49468761 5.98652318 31.31064766 8.21827797 35.4375 13.3125 C39.90225408 19.49778912 42.89530234 26.37977933 45.94165039 33.34179688 C46.75891163 35.2078479 47.58676789 37.06893648 48.41601562 38.9296875 C52.4375 48.04172166 52.4375 48.04172166 52.4375 50.3125 C53.0975 50.3125 53.7575 50.3125 54.4375 50.3125 C54.7046582 49.45889893 54.97181641 48.60529785 55.24707031 47.72583008 C57.14720846 42.27754636 59.73274467 37.15235672 62.24023438 31.96411133 C63.17817784 30.01932906 64.10497097 28.06949994 65.03125 26.11914062 C74.82718398 5.67021415 74.82718398 5.67021415 84.4375 1.3125 C93.37775676 -1.26307358 105.15338313 -1.0021442 113.4375 3.3125 C113.7675 3.6425 114.0975 3.9725 114.4375 4.3125 C116.10166861 4.55915356 117.76901287 4.78448708 119.4375 5 C126.0520914 6.1698107 131.56650071 8.68296964 135.8125 14.05078125 C139.83520756 20.72078533 140.73616266 26.91268119 140.72802734 34.49560547 C140.73474457 35.40046692 140.74146179 36.30532837 140.74838257 37.23760986 C140.7673254 40.21835881 140.77128479 43.19888217 140.7734375 46.1796875 C140.77986762 48.25945121 140.78659614 50.33921401 140.79360962 52.41897583 C140.80557282 56.77494402 140.80929138 61.13083295 140.80810547 65.48681641 C140.80790225 71.05745044 140.83521204 76.62757449 140.86964989 82.19808769 C140.89192973 86.49275021 140.89594268 90.78729016 140.89488602 95.08200455 C140.89724004 97.13523238 140.90605229 99.18846368 140.92155075 101.24163437 C140.94123395 104.1183176 140.93536358 106.99390306 140.92333984 109.87060547 C140.93457886 110.71138641 140.94581787 111.55216736 140.95739746 112.41842651 C140.89657099 118.1701427 139.61836629 122.483821 136.4375 127.3125 C130.84866932 132.51141226 123.49122218 132.94779688 116.19360352 132.84521484 C111.53934511 132.62092655 108.26104169 131.79206302 104.36328125 129.3203125 C101.87852559 128.01997384 99.58038597 127.72008696 96.8125 127.3125 C91.20350898 126.41910115 87.29570729 124.87269671 83.85546875 120.1328125 C82.14279456 116.72633655 81.70893361 113.77737664 81.25 110 C81.09144531 108.74574219 80.93289063 107.49148438 80.76953125 106.19921875 C80.60517578 104.77029297 80.60517578 104.77029297 80.4375 103.3125 C79.91800781 104.34890625 79.39851563 105.3853125 78.86328125 106.453125 C78.15946094 107.82322854 77.45499983 109.19300302 76.75 110.5625 C76.41033203 111.24441406 76.07066406 111.92632813 75.72070312 112.62890625 C72.99479028 117.87692537 70.25757002 121.37247666 64.4375 123.3125 C58.76274709 123.68461494 55.40286308 123.38629619 50.4375 120.3125 C49.7775 119.6525 49.1175 118.9925 48.4375 118.3125 C46.52486694 118.34437722 44.60982375 118.38126915 42.703125 118.53515625 C38.30337116 118.10276665 35.24257924 116.20193497 32.3125 112.96484375 C31.69375 112.06894531 31.075 111.17304687 30.4375 110.25 C29.81875 109.37214844 29.2 108.49429688 28.5625 107.58984375 C25.7373989 103.23274848 23.08334362 98.78011719 20.4375 94.3125 C20.41768066 95.02792969 20.39786133 95.74335937 20.37744141 96.48046875 C20.28150673 99.7581486 20.17210702 103.03525001 20.0625 106.3125 C20.01609375 108.00052734 20.01609375 108.00052734 19.96875 109.72265625 C19.41936308 125.3801835 19.41936308 125.3801835 14.9375 129.75 C10.87284241 132.29041099 8.4567901 132.50178641 3.625 132.5625 C1.79001953 132.60117187 1.79001953 132.60117187 -0.08203125 132.640625 C-3.77307709 132.29264761 -5.66452815 131.58671791 -8.5625 129.3125 C-8.5625 128.6525 -8.5625 127.9925 -8.5625 127.3125 C-9.29855469 127.34730469 -10.03460938 127.38210938 -10.79296875 127.41796875 C-18.64933433 127.63591284 -18.64933433 127.63591284 -22.5625 126.25 C-26.40950834 122.52321067 -27.7084454 118.07407977 -27.94345093 112.85551453 C-27.96111698 111.16117233 -27.96256328 109.46660944 -27.95068359 107.7722168 C-27.95594055 106.84116119 -27.96119751 105.91010559 -27.96661377 104.95083618 C-27.97976514 101.88762391 -27.97109063 98.82493589 -27.9609375 95.76171875 C-27.96296014 93.62091472 -27.96587316 91.48011137 -27.96963501 89.33930969 C-27.97405223 84.85642933 -27.96764849 80.37372858 -27.95361328 75.89086914 C-27.93655299 70.16470566 -27.94634659 64.43896505 -27.96433067 58.71281719 C-27.97521125 54.29196533 -27.97170206 49.8712124 -27.9639473 45.45035744 C-27.96195548 43.34018719 -27.96436851 41.23000777 -27.97138596 39.11984825 C-27.97906741 36.15998199 -27.96730158 33.20078376 -27.95068359 30.2409668 C-27.95675629 29.38089523 -27.96282898 28.52082367 -27.96908569 27.63468933 C-27.89370808 20.32988078 -26.88845079 13.1155689 -22.125 7.375 C-21.279375 6.694375 -20.43375 6.01375 -19.5625 5.3125 C-18.94375 4.755625 -18.325 4.19875 -17.6875 3.625 C-12.20157515 0.23663465 -6.26865593 -0.02786069 0 0 Z " fill="#FDFDFD" transform="translate(179.5625,442.6875)"/>
<path d="M0 0 C4.19594429 2.21240699 6.57323923 4.04148289 8.01913452 8.67735291 C9.42324943 14.73376393 9.77689519 20.55010711 9.8515625 26.75390625 C9.87092865 27.76218979 9.8902948 28.77047333 9.9102478 29.80931091 C9.96954433 32.99779062 10.01622769 36.18630741 10.0625 39.375 C10.1007258 41.55014507 10.13978014 43.72527575 10.1796875 45.90039062 C10.27520413 51.20429836 10.36039436 56.50829435 10.4375 61.8125 C10.82421875 61.00208252 11.2109375 60.19166504 11.609375 59.35668945 C12.13015625 58.28636475 12.6509375 57.21604004 13.1875 56.11328125 C13.95320312 54.52640503 13.95320312 54.52640503 14.734375 52.9074707 C20.72989423 42.01223026 31.37002894 36.40627502 42.8515625 32.71484375 C63.36754144 27.64480298 88.10488206 31.39807467 106.6953125 41.51953125 C112.78443094 46.03858552 117.31749624 51.72616714 118.95703125 59.171875 C119.70314036 65.26012532 119.5653932 70.39883869 116.4375 75.8125 C112.99473599 79.63455157 109.19472911 82.78752875 104.4375 84.8125 C101.6875 84.9375 101.6875 84.9375 99.4375 84.8125 C99.4375 85.4725 99.4375 86.1325 99.4375 86.8125 C100.05625 86.85375 100.675 86.895 101.3125 86.9375 C102.01375 87.22625 102.715 87.515 103.4375 87.8125 C104.6875 90.875 104.6875 90.875 105.4375 93.8125 C106.46875 93.296875 107.5 92.78125 108.5625 92.25 C112.20961068 90.70699164 114.61055159 90.4208824 118.4375 91.8125 C120.81740306 94.49948732 121.4375 96.03565714 121.4375 99.625 C118.06751755 110.36681908 110.18316043 117.21455955 100.57421875 122.453125 C92.33468613 126.02393117 84.96234876 127.29540788 76 127.1875 C75.04029297 127.19910156 74.08058594 127.21070313 73.09179688 127.22265625 C66.10584565 127.19443018 60.07840458 125.90088892 53.4375 123.8125 C51.82322772 123.34657721 50.20865544 122.88169224 48.59375 122.41796875 C33.72558311 117.95454724 20.43142434 113.03632627 12.4375 98.8125 C11.75653578 97.48641178 11.08419414 96.15563399 10.4375 94.8125 C10.33953125 95.86308594 10.2415625 96.91367187 10.140625 97.99609375 C8.29941264 115.95058736 8.29941264 115.95058736 2 122.25 C-5.22820607 126.65744273 -12.52879196 126.69109257 -20.7890625 125.48828125 C-24.9399637 124.19912471 -26.50575738 121.62883855 -28.4375 118 C-31.5598442 111.33141718 -31.71933271 104.76380422 -31.75537109 97.53759766 C-31.76354858 96.62298264 -31.77172607 95.70836761 -31.78015137 94.76603699 C-31.80487353 91.75288531 -31.82148445 88.7397802 -31.8359375 85.7265625 C-31.84126118 84.69395672 -31.84658485 83.66135094 -31.85206985 82.59745407 C-31.87873977 77.13528945 -31.89813723 71.67314724 -31.91259766 66.2109375 C-31.92595064 61.69868767 -31.95383765 57.18688857 -31.99462891 52.67480469 C-32.04397906 47.21486361 -32.0687208 41.75533203 -32.07582474 36.29517746 C-32.08252838 34.21959328 -32.09772726 32.14401793 -32.12171555 30.06856155 C-32.15341811 27.16062202 -32.15339653 24.25425916 -32.14599609 21.34619141 C-32.1706041 20.07099388 -32.1706041 20.07099388 -32.19570923 18.77003479 C-32.13243656 12.67230384 -30.48332758 8.51400458 -26.5625 3.8125 C-18.93796594 -2.13463657 -9.20611154 -3.07449385 0 0 Z M66.4375 85.8125 C66.92902482 90.67382495 66.92902482 90.67382495 69.4375 92.8125 C79.2296867 93.499671 87.53066852 90.64299538 96.4375 86.8125 C96.4375 86.4825 96.4375 86.1525 96.4375 85.8125 C86.5375 85.8125 76.6375 85.8125 66.4375 85.8125 Z " fill="#FDFDFD" transform="translate(1006.5625,449.1875)"/>
<path d="M0 0 C1.53637061 0.33757624 3.07863414 0.64915125 4.625 0.9375 C10.05067128 2.04666619 12.92958557 4.39437835 16 9 C16.391875 7.7625 16.78375 6.525 17.1875 5.25 C18.75587419 1.19657629 20.06240401 -0.86713551 24 -3 C30.84484424 -5.02359692 38.01863469 -5.77512531 45 -4 C45.78761719 -3.51660156 46.57523437 -3.03320312 47.38671875 -2.53515625 C50.41630489 -0.75544421 52.99044329 -0.25026117 56.4375 0.375 C62.11631155 1.63909703 65.3118652 2.43835958 69 7 C73.64976205 17.74447008 73.20444847 29.46558006 73.1875 40.9375 C73.18689575 41.6875531 73.1862915 42.4376062 73.18566895 43.21038818 C73.08022801 91.60134979 73.08022801 91.60134979 62 110 C61.64421875 110.63164063 61.2884375 111.26328125 60.921875 111.9140625 C56.04859515 119.70444649 47.62655513 124.45445914 39 127 C26.18376554 129.2692086 12.36860236 129.17392463 0 125 C-0.77085937 124.76023437 -1.54171875 124.52046875 -2.3359375 124.2734375 C-4.57441981 123.55869403 -6.78450999 122.7828318 -9 122 C-9.88558594 121.71382812 -10.77117187 121.42765625 -11.68359375 121.1328125 C-21.89694421 117.70475312 -30.66774034 112.59262002 -36.13671875 103.0078125 C-37.48433443 99.87353894 -37.36009073 97.36084679 -37 94 C-35.05939818 91.1637358 -33.54298581 90.21977997 -30.375 88.9375 C-25.98975937 89.01870816 -23.38462879 90.7197295 -19.58984375 92.796875 C-16.34141652 94.30594828 -13.55472086 94.55188079 -10.01953125 94.75 C-8 95 -8 95 -4.9375 96.625 C-1.08248815 98.42947363 2.03829613 98.31531719 6 97 C8.9549485 95.16831486 11.41832955 93.1633409 13 90 C12.32195312 90.04640625 11.64390625 90.0928125 10.9453125 90.140625 C4.63099394 90.38550162 0.14793707 89.6061076 -5.59375 87.0078125 C-7.95636781 86.01827452 -10.11404064 85.47295467 -12.625 85 C-20.24811565 83.46460215 -26.99469683 79.72902924 -31.9140625 73.625 C-32.47867187 72.75875 -33.04328125 71.8925 -33.625 71 C-34.19476563 70.154375 -34.76453125 69.30875 -35.3515625 68.4375 C-39.89957479 58.95349333 -40.48391308 49.21336057 -40.39111328 38.87451172 C-40.37512084 36.76593293 -40.39100129 34.65930003 -40.41015625 32.55078125 C-40.45031209 7.89760301 -40.45031209 7.89760301 -34.25 -0.375 C-24.77175067 -9.31630417 -10.35587609 -4.43823261 0 0 Z " fill="#FDFDFD" transform="translate(363,486)"/>
<path d="M0 0 C0.95950058 -0.00191345 1.91900116 -0.0038269 2.90757751 -0.00579834 C4.93570213 -0.00715618 6.96383556 -0.00348782 8.99194336 0.00488281 C12.05538133 0.0155055 15.11822179 0.00501651 18.18164062 -0.0078125 C44.55297102 -0.03052845 44.55297102 -0.03052845 56.21484375 5.328125 C56.88628418 5.63121582 57.55772461 5.93430664 58.24951172 6.24658203 C69.69929388 11.70318333 77.43597366 20.79166115 82.40234375 32.328125 C83.86925839 36.82879276 84.21459895 40.72402029 84.16015625 45.44921875 C84.15375122 46.13729614 84.14734619 46.82537354 84.14074707 47.53430176 C84.04236857 56.11338691 83.78599592 64.69017734 83.52734375 73.265625 C83.47895509 74.92707718 83.43077701 76.58853552 83.3828125 78.25 C83.26673804 82.25528299 83.14785728 86.26047322 83.02734375 90.265625 C75.73598776 90.50480467 69.61912131 89.4403782 62.6015625 87.59960938 C56.96230658 86.21648723 52.68244372 86.3454142 46.98217773 87.78051758 C40.89482164 89.27348977 35.21954294 89.50379284 28.96484375 89.390625 C28.00384766 89.38160156 27.04285156 89.37257813 26.05273438 89.36328125 C23.7106657 89.33997708 21.36914583 89.30726558 19.02734375 89.265625 C19.0584021 90.31689575 19.0584021 90.31689575 19.09008789 91.3894043 C19.3424166 101.5270813 19.58626421 114.23924986 12.30859375 122.12890625 C11.72078125 122.60714844 11.13296875 123.08539062 10.52734375 123.578125 C9.645625 124.31482422 9.645625 124.31482422 8.74609375 125.06640625 C3.05045829 129.04040645 -6.28033358 127.81271287 -12.97265625 127.265625 C-16.35763998 126.59057086 -18.54122361 125.73475427 -20.97265625 123.265625 C-26.1059186 115.55923367 -27.12040574 108.40616042 -27.1496582 99.37963867 C-27.1562294 98.49443039 -27.1628006 97.60922211 -27.16957092 96.69718933 C-27.18923613 93.77598985 -27.20095036 90.85484158 -27.2109375 87.93359375 C-27.21501303 86.93316858 -27.21908855 85.93274342 -27.22328758 84.90200233 C-27.24411774 79.60841709 -27.25843361 74.31485755 -27.26782227 69.02124023 C-27.27889043 63.56382527 -27.31330399 58.10681759 -27.35299397 52.64954662 C-27.37917438 48.44325518 -27.3875153 44.23706071 -27.39110374 40.03069496 C-27.39596465 38.01932329 -27.40756444 36.0079558 -27.42614174 33.99666405 C-27.45056721 31.1773812 -27.44956211 28.35915184 -27.44262695 25.53979492 C-27.45543701 24.71614441 -27.46824707 23.8924939 -27.48144531 23.04388428 C-27.42258016 16.44957847 -25.54168811 11.30388642 -21.26171875 6.2421875 C-20.71257812 5.79617188 -20.1634375 5.35015625 -19.59765625 4.890625 C-19.05367188 4.42914063 -18.5096875 3.96765625 -17.94921875 3.4921875 C-12.22735049 -0.05853707 -6.50700838 -0.02886722 0 0 Z " fill="#FDFDFD" transform="translate(530.97265625,447.734375)"/>
<path d="M0 0 C1.07185547 -0.00322266 2.14371094 -0.00644531 3.24804688 -0.00976562 C18.12581527 0.09032945 31.12480544 3.94723226 42.01953125 14.49609375 C49.6613828 23.39718416 52.84240543 34.14342217 52.75 45.6875 C52.74436035 46.43136963 52.7387207 47.17523926 52.73291016 47.94165039 C52.49132175 58.924355 48.86327763 68.26232733 41.46875 76.5078125 C29.38397271 88.02337927 14.62507515 91.39874374 -1.5625 91.3125 C-16.8404039 90.61188064 -29.93683371 85.7712455 -40.4375 74.375 C-43.51627329 70.61687298 -45.71213811 66.79277438 -47.5625 62.3125 C-47.8615625 61.64863281 -48.160625 60.98476563 -48.46875 60.30078125 C-52.63627763 49.86266806 -51.38725604 37.6796019 -47.5625 27.3125 C-41.87064287 15.29060781 -32.76937014 7.3431874 -20.3894043 2.4543457 C-13.56133374 0.13347443 -7.1652738 -0.10810612 0 0 Z M-7.5625 33.3125 C-8.76570831 38.87733842 -9.08765593 44.64259615 -8.5625 50.3125 C-7.9025 51.3025 -7.2425 52.2925 -6.5625 53.3125 C-4.58253668 42.90328138 -4.58253668 42.90328138 -7.5625 33.3125 Z " fill="#FDFDFD" transform="translate(763.5625,485.6875)"/>
<path d="M0 0 C3.73989014 1.97194207 5.3643001 3.14453094 7.4375 6.8125 C9.21617504 12.69829431 9.72917173 18.42264399 9.69628906 24.53833008 C9.6997937 25.35917587 9.70329834 26.18002167 9.70690918 27.02574158 C9.71563624 29.71126021 9.70990784 32.39651042 9.703125 35.08203125 C9.70447463 36.96856232 9.70641764 38.85509304 9.70892334 40.74162292 C9.71186273 44.68626228 9.70761663 48.63081072 9.69824219 52.57543945 C9.68687201 57.60177038 9.69339928 62.62788708 9.70538712 67.65421009 C9.71265795 71.54841183 9.71029355 75.44256386 9.70513153 79.3367672 C9.70380821 81.18850417 9.70539592 83.04024582 9.71009064 84.89197731 C9.76447432 112.37653423 9.76447432 112.37653423 3.4375 120.8125 C-3.66187688 126.31813921 -9.850364 126.33859517 -18.5625 125.8125 C-21.82272564 125.345125 -22.72126869 124.82503884 -25.5625 122.8125 C-30.96495755 114.79366903 -31.70848215 106.93949619 -31.75537109 97.53759766 C-31.76354858 96.62298264 -31.77172607 95.70836761 -31.78015137 94.76603699 C-31.80487353 91.75288531 -31.82148445 88.7397802 -31.8359375 85.7265625 C-31.84126118 84.69395672 -31.84658485 83.66135094 -31.85206985 82.59745407 C-31.87873977 77.13528945 -31.89813723 71.67314724 -31.91259766 66.2109375 C-31.92595064 61.69868767 -31.95383765 57.18688857 -31.99462891 52.67480469 C-32.04397906 47.21486361 -32.0687208 41.75533203 -32.07582474 36.29517746 C-32.08252838 34.21959328 -32.09772726 32.14401793 -32.12171555 30.06856155 C-32.15341811 27.16062202 -32.15339653 24.25425916 -32.14599609 21.34619141 C-32.1706041 20.07099388 -32.1706041 20.07099388 -32.19570923 18.77003479 C-32.13243656 12.67230384 -30.48332758 8.51400458 -26.5625 3.8125 C-18.93796594 -2.13463657 -9.20611154 -3.07449385 0 0 Z " fill="#FEFEFE" transform="translate(1006.5625,449.1875)"/>
<path d="M0 0 C3.72755254 1.60892712 6.4777693 3.21048646 9.24609375 6.2109375 C10.1175 5.705625 10.98890625 5.2003125 11.88671875 4.6796875 C20.61532389 -0.16679713 27.53242034 -2.47089621 37.62890625 -0.26953125 C43.25940026 1.50687922 45.67283377 4.45773253 48.49609375 9.3984375 C49.95518166 14.87001716 49.94303692 20.15882705 48.12109375 25.5234375 C45.80266489 28.84651887 43.53026707 30.83515254 40.24609375 33.2109375 C39.58609375 33.2109375 38.92609375 33.2109375 38.24609375 33.2109375 C38.24609375 37.1709375 38.24609375 41.1309375 38.24609375 45.2109375 C29.28459999 47.9491717 20.52524017 49.22131712 11.24609375 50.2109375 C11.4059375 50.86578125 11.56578125 51.520625 11.73046875 52.1953125 C13.28059422 61.26119781 13.79204876 72.93496813 9.24609375 81.2109375 C6.64338118 84.59446384 4.28096626 85.9396025 0.24609375 87.2109375 C-2.73710916 87.52086644 -5.69418729 87.53567105 -8.69140625 87.5234375 C-9.47708984 87.53955078 -10.26277344 87.55566406 -11.07226562 87.57226562 C-15.98753786 87.57637882 -19.71430852 87.28620622 -23.75390625 84.2109375 C-28.60275668 77.00735644 -28.33697925 69.17898732 -28.28515625 60.796875 C-28.28785707 59.41402922 -28.29174437 58.0311853 -28.29675293 56.64834595 C-28.30261651 53.76537808 -28.29418544 50.88290938 -28.27539062 48 C-28.25255873 44.3202936 -28.26576925 40.6417518 -28.28968048 36.96208763 C-28.30418781 34.112003 -28.29951091 31.26219112 -28.28916931 28.41209793 C-28.28523742 26.400894 -28.2972965 24.38967909 -28.30969238 22.37850952 C-28.22828455 14.42583588 -27.69252132 9.41338324 -22.12109375 3.46875 C-15.36301012 -1.66173234 -8.30292992 -2.37899552 0 0 Z " fill="#FEFEFD" transform="translate(658.75390625,487.7890625)"/>
<path d="M0 0 C0.71671875 0.19464844 1.4334375 0.38929688 2.171875 0.58984375 C17.39482101 5.15132935 31.7778288 15.02176484 40.12109375 28.859375 C42.05957274 33.58064827 42.02760383 39.39036424 40.16015625 44.1328125 C37.20087396 48.7361405 33.19084351 51.38805599 28 53 C22.67551125 53.87909008 18.45529533 53.06301554 14 50 C12.72411137 48.58542782 11.47675628 47.14488646 10.25 45.6875 C4.5861923 39.02547332 -3.20540087 33.82862925 -12.06396484 32.74829102 C-22.76476266 32.01537552 -32.15863972 32.24480338 -41 39 C-43.7636971 41.49756331 -46.39596886 44.10786543 -48.90600586 46.86035156 C-53.03241916 51.36241571 -55.88784098 52.83236833 -61.9375 53.3125 C-66.76191525 53.14957416 -70.14934072 51.79431603 -73.66796875 48.3828125 C-77.48307614 44.15991453 -78.77586343 41.37584761 -79.3125 35.6875 C-78.50990615 26.21689252 -70.30997902 18.69520205 -63.42578125 12.79296875 C-45.58934529 -0.8252152 -21.84920434 -6.43337683 0 0 Z " fill="#020200" transform="translate(731,248)"/>
<path d="M0 0 C0 0.66 0 1.32 0 2 C0.66 2 1.32 2 2 2 C3.51034841 6.06828015 4.26559248 9.51325166 4.35058594 13.84667969 C4.37691101 14.9751532 4.40323608 16.10362671 4.43035889 17.26629639 C4.4481842 18.47263733 4.46600952 19.67897827 4.484375 20.921875 C4.5084845 22.17703918 4.53259399 23.43220337 4.55743408 24.72540283 C4.60566788 27.37817913 4.65000829 30.03068469 4.68798828 32.68359375 C4.73692697 36.05701938 4.80409763 39.429788 4.87673569 42.80277634 C4.94389344 46.05063582 4.99454704 49.29874796 5.046875 52.546875 C5.07279724 53.74511902 5.09871948 54.94336304 5.12542725 56.17791748 C5.33300364 73.44638394 5.33300364 73.44638394 0.6875 79.5 C-4.43274691 84.26302038 -9.26015928 84.33975445 -15.9375 84.3125 C-16.72318359 84.32861328 -17.50886719 84.34472656 -18.31835938 84.36132812 C-23.28715798 84.36548612 -26.69651864 83.74338674 -31 81 C-36.72437471 73.64008966 -36.33145961 64.85803206 -36.37109375 55.98046875 C-36.38012222 54.72671951 -36.3891507 53.47297028 -36.39845276 52.18122864 C-36.41292951 49.53432846 -36.42263015 46.88785907 -36.42553711 44.2409668 C-36.42984531 41.54362744 -36.45070714 38.84724227 -36.48706055 36.15014648 C-36.53604686 32.23912742 -36.55133717 28.32926347 -36.55859375 24.41796875 C-36.57812607 23.22286179 -36.59765839 22.02775482 -36.61778259 20.7964325 C-36.57743414 13.24251409 -35.50593057 7.22415451 -31 1 C-21.75367762 -6.98917626 -9.86129707 -6.64565672 0 0 Z " fill="#FDFDFD" transform="translate(954,491)"/>
<path d="M0 0 C8.22731901 5.33702607 13.17600595 12.24676784 16.24609375 21.45703125 C17.15391918 32.06817115 15.8091538 40.41300909 8.99609375 48.76953125 C3.18012319 54.89486195 -3.24842079 58.72379974 -11.75390625 59.45703125 C-22.29569771 59.44326912 -31.07805013 56.93089115 -38.75390625 49.45703125 C-45.64171721 40.01983571 -47.06186694 30.92971504 -45.75390625 19.45703125 C-43.20826333 10.61006594 -37.08076163 4.18335545 -29.31640625 -0.48046875 C-20.5865449 -4.50553459 -8.64482435 -4.12560758 0 0 Z " fill="#010100" transform="translate(583.75390625,241.54296875)"/>
<path d="M0 0 C0.54914063 0.46019531 1.09828125 0.92039062 1.6640625 1.39453125 C0.39691406 1.4203125 -0.87023437 1.44609375 -2.17578125 1.47265625 C-14.7964767 1.72482755 -14.7964767 1.72482755 -26.3359375 6.39453125 C-27.02816406 6.66394531 -27.72039063 6.93335938 -28.43359375 7.2109375 C-31.04004792 8.83261227 -31.27681416 10.54722436 -32.3359375 13.39453125 C-32.84398926 14.51674072 -32.84398926 14.51674072 -33.36230469 15.66162109 C-36.20039658 22.110472 -37.13757063 28.02313984 -37.5859375 35.01953125 C-37.70195313 36.52580078 -37.70195313 36.52580078 -37.8203125 38.0625 C-38.0064714 40.50583556 -38.17809345 42.94923179 -38.3359375 45.39453125 C-39.26587524 45.57411377 -39.26587524 45.57411377 -40.21459961 45.75732422 C-41.43288452 46.00699951 -41.43288452 46.00699951 -42.67578125 46.26171875 C-43.88415649 46.50317627 -43.88415649 46.50317627 -45.11694336 46.74951172 C-47.57224871 47.30355034 -47.57224871 47.30355034 -49.8984375 49.51953125 C-51.79309724 53.30885073 -52.13478463 56.24052619 -51.3359375 60.39453125 C-50.06268913 63.42381233 -50.06268913 63.42381233 -47.3359375 65.39453125 C-45.09620473 66.07989497 -45.09620473 66.07989497 -42.67578125 66.52734375 C-41.86359131 66.69379395 -41.05140137 66.86024414 -40.21459961 67.03173828 C-39.28466187 67.2113208 -39.28466187 67.2113208 -38.3359375 67.39453125 C-38.33229187 67.95083725 -38.32864624 68.50714325 -38.32489014 69.08030701 C-38.28286463 74.90510855 -38.21338075 80.72913676 -38.12841797 86.5534668 C-38.10030746 88.72298422 -38.07904391 90.89260216 -38.06494141 93.06225586 C-38.04337441 96.19306538 -37.99665307 99.32267878 -37.9453125 102.453125 C-37.94408386 103.41286728 -37.94285522 104.37260956 -37.94158936 105.36143494 C-37.80261151 111.84757657 -36.41339292 116.68330433 -33.3359375 122.39453125 C-39.11306843 122.68002255 -43.34427061 122.76100427 -48.3359375 119.39453125 C-53.73004351 114.30865987 -55.44484188 106.62503161 -55.67651367 99.40380859 C-55.67604854 97.67928903 -55.65969669 95.95471348 -55.62890625 94.23046875 C-55.62466141 93.31238434 -55.62041656 92.39429993 -55.61604309 91.44839478 C-55.59943247 88.55512447 -55.56181525 85.66258615 -55.5234375 82.76953125 C-55.50836782 80.79167682 -55.49468345 78.81381133 -55.48242188 76.8359375 C-55.44958703 72.02185923 -55.39792988 67.20831874 -55.3359375 62.39453125 C-55.955896 62.3382959 -56.57585449 62.28206055 -57.21459961 62.22412109 C-58.02678955 62.14371582 -58.83897949 62.06331055 -59.67578125 61.98046875 C-60.48136475 61.9036084 -61.28694824 61.82674805 -62.11694336 61.74755859 C-64.3359375 61.39453125 -64.3359375 61.39453125 -66.8984375 60.01953125 C-69.29235831 55.64802369 -69.02018794 51.24910804 -68.3359375 46.39453125 C-66.8984375 43.33203125 -66.8984375 43.33203125 -64.3359375 41.39453125 C-61.3677048 40.43407041 -58.42134707 39.83624587 -55.3359375 39.39453125 C-55.29855469 38.21117187 -55.26117187 37.0278125 -55.22265625 35.80859375 C-54.69632783 22.14429831 -53.30835921 11.04718922 -43.7734375 0.58203125 C-33.09680044 -7.45940532 -10.90433431 -7.4944505 0 0 Z " fill="#030303" transform="translate(880.3359375,447.60546875)"/>
<path d="M0 0 C3.1875 1.625 3.1875 1.625 4.1875 3.625 C3.61902344 3.71136719 3.05054688 3.79773438 2.46484375 3.88671875 C-3.12163544 4.90329009 -7.84440011 6.38961877 -11.8125 10.625 C-15.04298274 15.81093595 -15.2378227 19.97130919 -15.18481445 25.8840332 C-15.18846512 26.79704193 -15.19211578 27.71005066 -15.19587708 28.65072632 C-15.2039612 31.65926913 -15.19038685 34.66726957 -15.17578125 37.67578125 C-15.17526225 39.77556864 -15.17578149 41.87535652 -15.17729187 43.97514343 C-15.17720223 48.37404647 -15.16679253 52.77276592 -15.14868164 57.17163086 C-15.12603697 62.79360089 -15.12544382 68.41530183 -15.13219929 74.03730488 C-15.13555144 78.37404241 -15.12888503 82.7107193 -15.11907005 87.0474453 C-15.11523609 89.11936309 -15.11406231 91.19128766 -15.1156559 93.26320839 C-15.11602936 96.16819573 -15.10332665 99.07284671 -15.0871582 101.9777832 C-15.08963562 102.82431961 -15.09211304 103.67085602 -15.09466553 104.54304504 C-15.02959655 111.91845429 -13.86608597 118.8634882 -10.8125 125.625 C-16.65551324 125.93252701 -20.56037751 125.55406831 -25.8125 122.625 C-35.7861266 112.6513734 -32.9882969 94.32556909 -33.015625 81.2734375 C-33.01845238 80.35699085 -33.02127975 79.4405442 -33.02419281 78.49632645 C-33.03909297 73.65542573 -33.04838285 68.81455415 -33.05273438 63.97363281 C-33.05823538 58.99634302 -33.08232396 54.01932448 -33.11070633 49.04211998 C-33.12938095 45.1900861 -33.13454067 41.33811734 -33.13607025 37.48604202 C-33.13908151 35.65134813 -33.14705798 33.81665497 -33.16025543 31.98200607 C-33.17743346 29.41276279 -33.17540843 26.84418075 -33.16894531 24.27490234 C-33.1781601 23.52972855 -33.18737488 22.78455475 -33.1968689 22.01679993 C-33.14411014 15.27479408 -31.77745538 9.0679175 -27.5 3.75 C-19.5143479 -2.56423654 -9.58463494 -3.3970858 0 0 Z " fill="#050505" transform="translate(990.8125,444.375)"/>
<path d="M0 0 C0.72896484 -0.01611328 1.45792969 -0.03222656 2.20898438 -0.04882812 C7.00151455 -0.05314183 10.28299018 0.68152383 14.4375 3.3125 C14.9325 4.3025 14.9325 4.3025 15.4375 5.3125 C14.83164063 5.39886719 14.22578125 5.48523438 13.6015625 5.57421875 C6.65186699 6.73962923 -1.14808525 8.445906 -6.0078125 13.94921875 C-10.14495724 20.7678462 -10.85704171 27.88284138 -10.80541992 35.625 C-10.80731827 36.53161377 -10.80921661 37.43822754 -10.81117249 38.37231445 C-10.81486017 41.35246587 -10.8042038 44.33237045 -10.79296875 47.3125 C-10.79177559 49.39322888 -10.79132408 51.4739583 -10.7915802 53.5546875 C-10.79001874 57.90888863 -10.78175522 62.26300715 -10.76831055 66.6171875 C-10.75132137 72.18882468 -10.74749647 77.7603712 -10.74825573 83.33203125 C-10.74798335 87.62663635 -10.74249115 91.92122177 -10.73525429 96.21582031 C-10.73208003 98.26985526 -10.73010313 100.32389242 -10.72936058 102.37792969 C-10.72718381 105.25199147 -10.71841075 108.12595868 -10.70776367 111 C-10.70821686 111.84280518 -10.70867004 112.68561035 -10.70913696 113.55395508 C-10.68383973 118.24233637 -10.34062407 122.68743483 -9.5625 127.3125 C-18.29653831 127.77040104 -18.29653831 127.77040104 -22.5 126.25 C-26.42249036 122.56523633 -27.70711193 118.0913374 -27.94345093 112.85551453 C-27.96111698 111.16117233 -27.96256328 109.46660944 -27.95068359 107.7722168 C-27.95594055 106.84116119 -27.96119751 105.91010559 -27.96661377 104.95083618 C-27.97976514 101.88762391 -27.97109063 98.82493589 -27.9609375 95.76171875 C-27.96296014 93.62091472 -27.96587316 91.48011137 -27.96963501 89.33930969 C-27.97405223 84.85642933 -27.96764849 80.37372858 -27.95361328 75.89086914 C-27.93655299 70.16470566 -27.94634659 64.43896505 -27.96433067 58.71281719 C-27.97521125 54.29196533 -27.97170206 49.8712124 -27.9639473 45.45035744 C-27.96195548 43.34018719 -27.96436851 41.23000777 -27.97138596 39.11984825 C-27.97906741 36.15998199 -27.96730158 33.20078376 -27.95068359 30.2409668 C-27.95675629 29.38089523 -27.96282898 28.52082367 -27.96908569 27.63468933 C-27.89370808 20.32988078 -26.88845079 13.1155689 -22.125 7.375 C-21.279375 6.694375 -20.43375 6.01375 -19.5625 5.3125 C-18.94375 4.755625 -18.325 4.19875 -17.6875 3.625 C-12.20157515 0.23663465 -6.26865593 -0.02786069 0 0 Z " fill="#000000" transform="translate(179.5625,442.6875)"/>
<path d="M0 0 C1.24210545 0.64223765 2.4772869 1.2995149 3.6875 2 C3.6875 2.33 3.6875 2.66 3.6875 3 C2.49125 3.226875 1.295 3.45375 0.0625 3.6875 C-4.57147558 4.86034692 -6.96880969 6.57854945 -10.3125 10 C-12.84831725 14.27821381 -13.68768833 17.40043056 -13.68481445 22.35327148 C-13.69104324 23.59153183 -13.69727203 24.82979218 -13.70368958 26.10557556 C-13.69499963 27.44408574 -13.68568144 28.78259197 -13.67578125 30.12109375 C-13.67526187 31.50822448 -13.67578259 32.89535595 -13.67729187 34.28248596 C-13.6772024 37.18330949 -13.66682718 40.08385363 -13.64868164 42.98461914 C-13.62601654 46.68766993 -13.62544931 50.39031231 -13.63219929 54.09341335 C-13.63555449 56.95631995 -13.62887977 59.81913486 -13.61907005 62.682024 C-13.61524286 64.04665712 -13.61405945 65.41130048 -13.6156559 66.77593803 C-13.65640634 76.57795523 -13.65640634 76.57795523 -11.3125 86 C-17.08002349 86.34605141 -21.3306105 86.32125966 -26.3125 83 C-31.15814387 78.15435613 -31.42986042 72.04850071 -31.4375 65.5625 C-31.39887331 63.70826751 -31.35769583 61.854084 -31.3125 60 C-32.01415283 59.96189209 -32.71580566 59.92378418 -33.4387207 59.88452148 C-41.65607983 59.33177228 -49.47738748 57.8856223 -57.5 56.0625 C-58.72525391 55.79759766 -59.95050781 55.53269531 -61.21289062 55.25976562 C-62.37369141 55.00001953 -63.53449219 54.74027344 -64.73046875 54.47265625 C-66.30477661 54.12086304 -66.30477661 54.12086304 -67.91088867 53.76196289 C-68.70342041 53.51051514 -69.49595215 53.25906738 -70.3125 53 C-70.6425 52.34 -70.9725 51.68 -71.3125 51 C-61.55560104 47.98423123 -53.75045901 50.00973171 -43.9375 52.28125 C-39.74305403 53.11290739 -35.56562683 53.59011816 -31.3125 54 C-31.32821045 52.44273193 -31.32821045 52.44273193 -31.34423828 50.85400391 C-31.3807608 46.95885745 -31.40351642 43.06372576 -31.42236328 39.16845703 C-31.43234803 37.49069666 -31.44594057 35.81295336 -31.46337891 34.13525391 C-31.71329517 9.45234786 -31.71329517 9.45234786 -25.9375 3.5 C-25.35226562 2.8709375 -24.76703125 2.241875 -24.1640625 1.59375 C-17.53689134 -4.11065049 -7.66300454 -3.43010679 0 0 Z " fill="#080804" transform="translate(645.3125,484)"/>
<path d="M0 0 C0 0.33 0 0.66 0 1 C-1.08716309 1.01401855 -1.08716309 1.01401855 -2.19628906 1.02832031 C-5.54816132 1.08270959 -8.8987385 1.16621846 -12.25 1.25 C-13.95929688 1.27126953 -13.95929688 1.27126953 -15.703125 1.29296875 C-27.97923104 1.64172176 -37.87814874 5.11277984 -48 12 C-49.051875 12.70125 -50.10375 13.4025 -51.1875 14.125 C-57.30475056 19.47541573 -62.51663817 29.28492258 -63.20068359 37.37280273 C-63.30532844 40.16835157 -63.32195073 42.95258322 -63.3125 45.75 C-63.32861328 46.6884375 -63.34472656 47.626875 -63.36132812 48.59375 C-63.36845646 58.91557932 -61.09185479 67.32955566 -54 75 C-51.76242106 77.13385011 -49.4298766 79.09000397 -47 81 C-46.030625 81.78375 -45.06125 82.5675 -44.0625 83.375 C-43.381875 83.91125 -42.70125 84.4475 -42 85 C-55.33391644 82.88438904 -65.69210398 77.6453512 -74.4609375 67.21484375 C-81.67977603 56.82631216 -82.23953261 43.86580955 -80.5390625 31.703125 C-78.18523703 21.01398816 -72.72666995 11.71925705 -64 5 C-44.93559019 -6.8380001 -20.75023325 -8.83806231 0 0 Z " fill="#040404" transform="translate(1096,485)"/>
<path d="M0 0 C1.06025391 -0.01611328 2.12050781 -0.03222656 3.21289062 -0.04882812 C10.69438496 -0.05338723 17.7261057 0.79900916 24.8125 3.3125 C25.8025 4.3025 25.8025 4.3025 26.8125 5.3125 C25.86165527 5.32651855 25.86165527 5.32651855 24.89160156 5.34082031 C7.14310214 5.66961562 -7.8233013 6.865077 -21.51171875 19.44921875 C-30.92732586 29.42175641 -33.79533798 41.14168921 -33.5625 54.6171875 C-32.43381697 65.73941817 -27.6827436 75.88185434 -19.06640625 83.0859375 C-17.72678814 84.0937236 -16.36802938 85.07701791 -14.984375 86.0234375 C-13.18666543 87.31309871 -11.70657763 88.70902917 -10.1875 90.3125 C-23.31856765 87.53737745 -34.95357532 83.06936208 -43.01171875 71.75 C-45.48644723 67.72332316 -47.50064094 63.72971699 -49.1875 59.3125 C-56.24225275 60.03208478 -63.16587673 61.11669578 -70.140625 62.3828125 C-72.14957757 62.73336798 -74.16809782 63.02825642 -76.1875 63.3125 C-77.1875 62.3125 -77.1875 62.3125 -77.25 59.75 C-77.229375 58.945625 -77.20875 58.14125 -77.1875 57.3125 C-73.06312418 56.47605701 -68.93790082 55.64387162 -64.8125 54.8125 C-63.636875 54.57402344 -62.46125 54.33554687 -61.25 54.08984375 C-59.56777344 53.75146484 -59.56777344 53.75146484 -57.8515625 53.40625 C-56.81467285 53.19677734 -55.7777832 52.98730469 -54.70947266 52.77148438 C-52.1875 52.3125 -52.1875 52.3125 -50.1875 52.3125 C-50.25710938 51.49265625 -50.32671875 50.6728125 -50.3984375 49.828125 C-50.56216791 46.56911024 -50.61652324 43.54967532 -50.1875 40.3125 C-47.375 37.875 -47.375 37.875 -44.1875 36.3125 C-42.36130913 33.79885244 -42.36130913 33.79885244 -41.1875 31.3125 C-40.8575 30.6525 -40.5275 29.9925 -40.1875 29.3125 C-40.34947518 27.27045578 -40.51699285 25.22884952 -40.6875 23.1875 C-40.70427815 19.38305425 -40.6992068 17.09905922 -38.609375 13.88671875 C-27.66123507 3.74590569 -14.54858144 -0.0434286 0 0 Z " fill="#050502" transform="translate(747.1875,480.6875)"/>
<path d="M0 0 C1.10118164 -0.0309375 1.10118164 -0.0309375 2.22460938 -0.0625 C7.45682153 -0.09964081 11.02331398 0.86058517 15.6875 3.25 C16.1825 3.745 16.1825 3.745 16.6875 4.25 C18.58046784 4.52084454 20.47705757 4.76655075 22.375 5 C28.0714728 5.92796287 30.94863071 6.82239163 34.6875 11.25 C37.01400273 16.61107151 37.03341969 20.68686529 35.6875 26.25 C32.75909001 29.99185721 30.18819161 31.87260713 25.6875 33.25 C22.57975605 33.58463466 19.49868991 33.62013823 16.375 33.625 C15.55837891 33.64949219 14.74175781 33.67398438 13.90039062 33.69921875 C8.59678375 33.72457464 5.10494794 32.79356463 0.49389648 30.19873047 C-1.98198768 28.89838098 -4.368847 28.49564146 -7.125 28.125 C-10.72600723 27.62725852 -12.2088424 27.31910506 -15.3125 25.25 C-16.35968798 22.93745988 -17.35596365 20.6014852 -18.3125 18.25 C-18.93125 17.445625 -19.55 16.64125 -20.1875 15.8125 C-21.48492278 12.85725922 -21.3166993 12.17230129 -20.375 9.1875 C-18.59041569 5.11064792 -16.30404894 3.28650456 -12.3125 1.25 C-8.24582415 0.03004816 -4.21485386 0.02914333 0 0 Z " fill="#FDFDFD" transform="translate(922.3125,441.75)"/>
<path d="M0 0 C0 0.66 0 1.32 0 2 C-1.8253125 2.4021875 -1.8253125 2.4021875 -3.6875 2.8125 C-9.87553736 4.43021444 -9.87553736 4.43021444 -14.29870605 8.91479492 C-18.25669771 16.10718307 -18.70589067 22.20255272 -18.59375 30.3125 C-18.59379028 31.56200439 -18.59383057 32.81150879 -18.59387207 34.09887695 C-18.5871783 37.3965356 -18.55733564 40.69296102 -18.51818848 43.99035645 C-18.50001231 45.99864018 -18.49743061 48.00629237 -18.50097656 50.01464844 C-18.50766416 53.90587761 -18.49245971 57.79634732 -18.46875 61.6875 C-18.46844788 63.4660437 -18.46844788 63.4660437 -18.46813965 65.28051758 C-18.36864826 72.33458273 -17.4644716 78.37635051 -15 85 C-20.74541641 85.2846596 -25.07995111 85.43259225 -30 82 C-33.85988977 77.09689678 -35.12345005 73.39029086 -35.12939453 67.26318359 C-35.13254669 66.32896576 -35.13569885 65.39474792 -35.13894653 64.43222046 C-35.1369223 63.43107208 -35.13489807 62.42992371 -35.1328125 61.3984375 C-35.13424759 59.84922104 -35.13424759 59.84922104 -35.13571167 58.26870728 C-35.13639157 56.08831725 -35.13455054 53.90792519 -35.13037109 51.72753906 C-35.12500931 48.38081349 -35.13032812 45.03422146 -35.13671875 41.6875 C-35.13605815 39.5703122 -35.13477736 37.45312449 -35.1328125 35.3359375 C-35.13483673 34.33074066 -35.13686096 33.32554382 -35.13894653 32.28988647 C-35.13579437 31.36197296 -35.13264221 30.43405945 -35.12939453 29.47802734 C-35.12859894 28.65958344 -35.12780334 27.84113953 -35.12698364 26.99789429 C-35 25 -35 25 -34 23 C-33.72915017 17.88474354 -33.72915017 17.88474354 -34.6875 12.9375 C-35.23737046 9.52830318 -33.78101012 6.80478805 -32 4 C-23.22746823 -5.48557007 -11.17057403 -6.51616819 0 0 Z " fill="#000000" transform="translate(937,485)"/>
<path d="M0 0 C0 0.66 0 1.32 0 2 C-0.66386719 2.08636719 -1.32773437 2.17273438 -2.01171875 2.26171875 C-7.81576806 3.1852828 -11.37948828 4.02179638 -15 9 C-19.06179486 19.84649663 -19.2169877 31.11746424 -19.3125 42.5625 C-19.33884521 44.24702271 -19.33884521 44.24702271 -19.36572266 45.96557617 C-19.35474179 61.0368116 -16.05378701 73.86059798 -5.34765625 84.66796875 C-4.90292969 85.10753906 -4.45820313 85.54710937 -4 86 C-12.96236748 85.58507558 -19.23162862 82.90906404 -26 77 C-27.9140625 74.625 -27.9140625 74.625 -29.625 72 C-30.19476563 71.154375 -30.76453125 70.30875 -31.3515625 69.4375 C-35.89957479 59.95349333 -36.48391308 50.21336057 -36.39111328 39.87451172 C-36.37512084 37.76593293 -36.39100129 35.65930003 -36.41015625 33.55078125 C-36.45031209 8.89760301 -36.45031209 8.89760301 -30.25 0.625 C-22.67817241 -6.5178817 -8.30113313 -5.53408875 0 0 Z " fill="#010101" transform="translate(359,485)"/>
<path d="M0 0 C0.495 0.99 0.495 0.99 1 2 C0.16597656 2.07476562 -0.66804688 2.14953125 -1.52734375 2.2265625 C-2.65269531 2.35804688 -3.77804687 2.48953125 -4.9375 2.625 C-6.03964844 2.74101562 -7.14179688 2.85703125 -8.27734375 2.9765625 C-15.12847198 4.86008359 -20.31543018 8.19534502 -23.90625 14.421875 C-24.79487818 16.18600887 -25.65808635 17.96310052 -26.5 19.75 C-26.98065918 20.71631348 -27.46131836 21.68262695 -27.95654297 22.67822266 C-29.33832051 25.46287687 -30.69817447 28.25727283 -32.05310059 31.05505371 C-34.9833358 37.07380294 -37.98343296 43.05850017 -40.9699707 49.04943848 C-42.11682597 51.35854222 -43.25356593 53.67240651 -44.38867188 55.98730469 C-45.09489428 57.41609364 -45.8012674 58.8448081 -46.5078125 60.2734375 C-46.99297836 61.27185165 -46.99297836 61.27185165 -47.48794556 62.29043579 C-49.77337949 66.88668975 -49.77337949 66.88668975 -52 68 C-53.37637745 65.11422066 -54.72198249 62.21508967 -56.0625 59.3125 C-56.45244141 58.49587891 -56.84238281 57.67925781 -57.24414062 56.83789062 C-57.60830078 56.04189453 -57.97246094 55.24589844 -58.34765625 54.42578125 C-58.68804932 53.69786377 -59.02844238 52.96994629 -59.37915039 52.2199707 C-60.61926846 47.785683 -58.7840494 44.19722689 -56.77734375 40.26171875 C-56.32504395 39.36638428 -55.87274414 38.4710498 -55.40673828 37.54858398 C-54.92188965 36.60442627 -54.43704102 35.66026855 -53.9375 34.6875 C-52.93321465 32.71373451 -51.92931135 30.73977459 -50.92578125 28.765625 C-50.18062256 27.30479492 -50.18062256 27.30479492 -49.42041016 25.81445312 C-48.14103238 23.27944677 -46.89491989 20.73256247 -45.66796875 18.171875 C-45.31935791 17.45040283 -44.97074707 16.72893066 -44.61157227 15.9855957 C-43.97540045 14.66492127 -43.34641532 13.34074906 -42.72631836 12.01245117 C-39.59887832 5.58561863 -35.07767378 1.62074183 -29 -2 C-20.29218404 -4.67226296 -8.03468934 -4.35212339 0 0 Z " fill="#010101" transform="translate(293,446)"/>
<path d="M0 0 C0.78375 0.66 1.5675 1.32 2.375 2 C2.375 2.33 2.375 2.66 2.375 3 C1.71113281 3.12117188 1.04726563 3.24234375 0.36328125 3.3671875 C-6.41362498 4.41073477 -6.41362498 4.41073477 -12.625 7 C-14.96423864 12.21873862 -14.92012993 17.17700521 -14.93359375 22.78125 C-14.95874483 24.69401358 -14.98414298 26.60677393 -15.00976562 28.51953125 C-15.03852378 31.51480329 -15.06256267 34.5100194 -15.08129883 37.50537109 C-15.10299025 40.41011533 -15.14241943 43.31422605 -15.18359375 46.21875 C-15.18370956 47.10953247 -15.18382538 48.00031494 -15.1839447 48.91809082 C-15.26754916 54.18974782 -15.65457961 59.02957961 -19.625 63 C-21.5859375 63.203125 -21.5859375 63.203125 -24 63.25 C-24.79148437 63.27578125 -25.58296875 63.3015625 -26.3984375 63.328125 C-29.15214035 62.92231616 -29.95771658 62.18894879 -31.625 60 C-32.55792565 57.20122304 -32.76098036 55.46057519 -32.78613281 52.5637207 C-32.79574036 51.66881424 -32.8053479 50.77390778 -32.81524658 49.85188293 C-32.81949646 48.88626938 -32.82374634 47.92065582 -32.828125 46.92578125 C-32.83382507 45.92798141 -32.83952515 44.93018158 -32.84539795 43.90214539 C-32.85484828 41.78804586 -32.86138206 39.67393159 -32.86523438 37.55981445 C-32.87491025 34.34234479 -32.90592138 31.12552205 -32.9375 27.90820312 C-32.9440333 25.85156628 -32.94928249 23.79492488 -32.953125 21.73828125 C-32.9654718 20.78278885 -32.9778186 19.82729645 -32.99053955 18.84284973 C-32.96790272 11.97382523 -32.20925169 6.06879888 -27.625 0.625 C-19.70460787 -3.6652124 -7.88293264 -5.05836895 0 0 Z " fill="#060606" transform="translate(411.625,484)"/>
<path d="M0 0 C0.33 0 0.66 0 1 0 C1.00879936 1.01024986 1.00879936 1.01024986 1.01777649 2.04090881 C1.08182625 9.06555081 1.16627637 16.0897396 1.26245117 23.11401367 C1.29565743 25.73374447 1.32370266 28.35354606 1.34643555 30.97338867 C1.38005954 34.74428411 1.43238196 38.51453322 1.48828125 42.28515625 C1.49467117 43.45208511 1.5010611 44.61901398 1.50764465 45.82130432 C1.61823668 51.97054188 2.04900422 56.56178543 5 62 C-1.29911692 62.44993692 -5.79850375 61.75983986 -11 58 C-16.59272138 51.11665061 -16.87644556 43.64897338 -16.28570557 35.04162598 C-15.44900522 29.06264146 -12.40371136 23.68673415 -9.6875 18.375 C-9.08394836 17.13800345 -8.4830245 15.89972124 -7.88476562 14.66015625 C-2.96201243 4.59463853 -2.96201243 4.59463853 0 0 Z " fill="#090909" transform="translate(277,508)"/>
<path d="M0 0 C5.10578426 6.19988089 5.36181052 14.08656467 5.3125 21.75 C5.30621582 23.07354492 5.30621582 23.07354492 5.29980469 24.42382812 C5.17270757 31.77382736 5.01346574 39.43529053 0.078125 45.2734375 C-2 47 -2 47 -5 47.125 C-9.13511885 45.57433043 -10.09102892 43.95934742 -12 40 C-12.97893507 35.78599043 -13.16515431 32.06318086 -12.5 27.78125 C-11.82642055 22.68730538 -12.05189287 17.70710321 -12.30273438 12.58398438 C-12.42547041 7.21541926 -11.59366924 4.25793343 -8 0 C-5.00422405 -1.49788797 -3.16806651 -0.90516186 0 0 Z " fill="#030303" transform="translate(769,508)"/>
<path d="M0 0 C6.29104635 0.24865796 11.1809109 0.53352717 16 5 C20.34994288 11.52491432 19.72930435 19.42834584 19 27 C17.76268083 31.66965655 15.8882916 34.23283907 12.25 37.375 C6.85301 40.073495 2.02457472 41.12529445 -4 41 C-4.63335679 31.78114004 -4.63335679 31.78114004 -2.125 28.6875 C-1.42375 28.130625 -0.7225 27.57375 0 27 C2.15471795 22.86384562 2.26873424 19.24298916 2.25 14.625 C2.25515625 13.35914063 2.2603125 12.09328125 2.265625 10.7890625 C1.98866054 6.83824597 1.21916298 3.74457202 0 0 Z " fill="#050504" transform="translate(553,472)"/>
<path d="M0 0 C2.23973901 2.07107076 3.68493328 3.99341251 5.05859375 6.7109375 C5.43862549 7.45118164 5.81865723 8.19142578 6.21020508 8.95410156 C6.6152124 9.75299805 7.02021973 10.55189453 7.4375 11.375 C11.2502229 18.75261523 15.20040128 26.03478085 19.3125 33.25 C20.04907837 34.55203369 20.04907837 34.55203369 20.80053711 35.88037109 C22.99252635 39.70751209 25.21966926 43.38276988 27.85546875 46.921875 C30 50 30 50 30 53 C24.26558848 53.29660749 21.06177311 53.05038432 16 50 C12.88234823 46.65119154 10.5210348 42.80966782 8 39 C7.24460938 38.02417969 6.48921875 37.04835938 5.7109375 36.04296875 C-2.04465652 24.93027132 -0.80222554 13.09787475 0 0 Z " fill="#050505" transform="translate(198,508)"/>
<path d="M0 0 C1.10118164 -0.0309375 1.10118164 -0.0309375 2.22460938 -0.0625 C7.44618799 -0.09956533 11.06210879 0.78472034 15.6875 3.25 C16.1825 4.24 16.1825 4.24 16.6875 5.25 C15.97464844 5.34796875 15.26179687 5.4459375 14.52734375 5.546875 C4.78337304 7.05443285 4.78337304 7.05443285 -2.75 13.0625 C-4.14965025 18.5055843 -3.3244478 23.09438376 -1.3125 28.25 C-6.81820464 28.53477783 -10.66587823 28.59989011 -15.3125 25.25 C-17 21.875 -17 21.875 -18.3125 18.25 C-18.93125 17.445625 -19.55 16.64125 -20.1875 15.8125 C-21.48492278 12.85725922 -21.3166993 12.17230129 -20.375 9.1875 C-18.59041569 5.11064792 -16.30404894 3.28650456 -12.3125 1.25 C-8.24582415 0.03004816 -4.21485386 0.02914333 0 0 Z " fill="#010101" transform="translate(922.3125,441.75)"/>
<path d="M0 0 C2.140625 1.3125 2.140625 1.3125 4.25 3 C9.06454991 6.4470559 12.18303093 6.55399705 18 6 C18 9.96 18 13.92 18 18 C9.03850624 20.7382342 0.27914642 22.01037962 -9 23 C-9.11608726 19.72946483 -9.18720711 16.4594582 -9.25 13.1875 C-9.28351562 12.25873047 -9.31703125 11.32996094 -9.3515625 10.37304688 C-9.36445312 9.48037109 -9.37734375 8.58769531 -9.390625 7.66796875 C-9.41157227 6.84578857 -9.43251953 6.0236084 -9.45410156 5.17651367 C-9 3 -9 3 -7.13085938 1.23168945 C-4.46560834 -0.30889161 -3.03683412 -0.45269577 0 0 Z " fill="#F8F805" transform="translate(679,515)"/>
<path d="M0 0 C1.7073756 0.97465571 3.38379412 2.0031086 5.0546875 3.0390625 C4.7453125 3.5753125 4.4359375 4.1115625 4.1171875 4.6640625 C2.54508611 8.17817149 1.51835777 11.08064637 2.5703125 14.921875 C5.23993287 21.1105404 9.94786856 24.83924615 15.0546875 29.0390625 C15.7146875 29.6990625 16.3746875 30.3590625 17.0546875 31.0390625 C8.05184856 30.85900572 -0.86962841 26.66934998 -7.5546875 20.71484375 C-11.54663693 16.30767331 -14.67483349 12.56353325 -15.3203125 6.5390625 C-14.9453125 3.0390625 -14.9453125 3.0390625 -13.1328125 0.6640625 C-8.73694969 -2.60143559 -4.8478118 -2.39470221 0 0 Z " fill="#010101" transform="translate(340.9453125,576.9609375)"/>
<path d="M0 0 C0.33 0 0.66 0 1 0 C1 10.89 1 21.78 1 33 C-9.1383975 33 -9.1383975 33 -12.74609375 32.1953125 C-13.52017578 32.02386719 -14.29425781 31.85242188 -15.09179688 31.67578125 C-15.86587891 31.49402344 -16.63996094 31.31226563 -17.4375 31.125 C-18.63922852 30.86396484 -18.63922852 30.86396484 -19.86523438 30.59765625 C-25.73824291 29.26175709 -25.73824291 29.26175709 -28 27 C-27.3709375 26.78085937 -26.741875 26.56171875 -26.09375 26.3359375 C-16.31826677 22.71429763 -7.32743159 17.05787508 -2.7421875 7.33203125 C-1.76332664 4.90541464 -0.84673784 2.47546298 0 0 Z " fill="#FBFB03" transform="translate(613,505)"/>
<path d="M0 0 C0.4982392 5.67992693 0.20599596 9.04480855 -3.46484375 13.5234375 C-7.58593041 17.48723078 -11.81262203 18.18926855 -17.3125 18.4375 C-23.11883855 18.30078566 -27.82193802 16.51602144 -33 14 C-30.53259611 12.72580455 -28.18730608 11.70447494 -25.5625 10.75 C-21.83241443 9.2696628 -21.83241443 9.2696628 -19.875 6 C-16.74734702 1.76661111 -11.96068442 1.43139779 -7.05859375 0.4453125 C-4 0 -4 0 0 0 Z " fill="#060606" transform="translate(394,572)"/>
<path d="M0 0 C2.48617444 2.44463931 2.98144523 3.84410357 3.3984375 7.34765625 C3.39070313 8.57355469 3.38296875 9.79945313 3.375 11.0625 C3.38273437 12.29097656 3.39046875 13.51945313 3.3984375 14.78515625 C3 18 3 18 1.95703125 19.921875 C-1.12747662 21.62112485 -4.26785373 21.31202493 -7.6875 21.1875 C-8.38939453 21.17396484 -9.09128906 21.16042969 -9.81445312 21.14648438 C-11.54329829 21.11120182 -13.27174765 21.05739583 -15 21 C-15.29746279 13.70153792 -13.0141184 7.90270005 -8.875 1.9375 C-5.79562251 -1.24452341 -4.16514196 -1.32065477 0 0 Z " fill="#050505" transform="translate(1086,502)"/>
<path d="M0 0 C2 2.3125 2 2.3125 3 5 C2.359375 7.05859375 2.359375 7.05859375 1 9 C-6.87631621 12.90898657 -18.28518536 13.80601709 -26.6328125 11.16796875 C-31.60578622 8.78842756 -31.60578622 8.78842756 -33 6 C-31.33324219 5.74476563 -31.33324219 5.74476563 -29.6328125 5.484375 C-19.74876211 3.95797727 -19.74876211 3.95797727 -10.3125 0.75 C-6.50296642 -0.92800884 -4.03340665 -1.67238812 0 0 Z " fill="#090909" transform="translate(1109,536)"/>
<path d="M0 0 C0.33 0.66 0.66 1.32 1 2 C0.39414062 2.15855469 -0.21171875 2.31710937 -0.8359375 2.48046875 C-7.32134705 4.28640587 -13.07837438 6.81240153 -19 10 C-19.70125 9.21625 -20.4025 8.4325 -21.125 7.625 C-24.09157086 4.91639182 -26.1582516 3.98277285 -30 3 C-22.80566648 -5.88711787 -9.22392923 -4.52494642 0 0 Z " fill="#090906" transform="translate(686,485)"/>
<path d="M0 0 C2.475 0.495 2.475 0.495 5 1 C7.852544 8.41661441 8.44973585 17.02947709 6.20703125 24.71875 C5.1875 26.875 5.1875 26.875 3 30 C2.01 30.33 1.02 30.66 0 31 C0 20.77 0 10.54 0 0 Z " fill="#FAFA02" transform="translate(549,472)"/>
</svg>
